# xmcd
# Track frame offsets:
# 150
# 10045
# 20095
# 30520
# 41920
# 49495
# 61195
# 73120
# 85175
# 95430
# 106405
# 118855
# 128830
# 138580
# 147355
# 156730
# 167980
# 178930
#
# Disc length: 2516 seconds
# Revision: 0
# Processed by: cddbd v1.5.1PL0 Copyright (c) Steve Scherf et al.
# Submitted via: VisiTrax 2.9.10.220 - For more info visit www.synapsa.com
#
DISCID=0e09d212
DTITLE=Johnny Cash - This Is Gold [CD1]
DYEAR=2004
DGENRE=
TTITLE0=Ballad Of A Teenage Queen
TTITLE1=Get Rhythm
TTITLE2=You Win Again
TTITLE3=Big River
TTITLE4=Come In Stranger
TTITLE5=So Doggone Lonesome
TTITLE6=Home Of The Blues
TTITLE7=You're The Nearest Thing To Heaven
TTITLE8=There You Go
TTITLE9=Cry! Cry! Cry!
TTITLE10=Give My Love To Rose
TTITLE11=Hey Porter
TTITLE12=It's Just About Time
TTITLE13=Katy Too
TTITLE14=Luther Played The Boogie
TTITLE15=Mean Eyed Cat
TTITLE16=I Heard That Lonesome Whistle Blow
TTITLE17=Rock Island Line
EXTD=
EXTT0=
EXTT1=
EXTT2=
EXTT3=
EXTT4=
EXTT5=
EXTT6=
EXTT7=
EXTT8=
EXTT9=
EXTT10=
EXTT11=
EXTT12=
EXTT13=
EXTT14=
EXTT15=
EXTT16=
EXTT17=
PLAYORDER=
